<svg id="visual" viewBox="0 0 900 600" width="900" height="600" xmlns="http://www.w3.org/2000/svg" xmlns:xlink="http://www.w3.org/1999/xlink" version="1.1"><rect x="0" y="0" width="900" height="600" fill="#001220"></rect><path d="M0 430L21.5 417.3C43 404.7 86 379.3 128.8 367.8C171.7 356.3 214.3 358.7 257.2 359C300 359.3 343 357.7 385.8 364.3C428.7 371 471.3 386 514.2 401.2C557 416.3 600 431.7 642.8 432.3C685.7 433 728.3 419 771.2 409.3C814 399.7 857 394.3 878.5 391.7L900 389L900 601L878.5 601C857 601 814 601 771.2 601C728.3 601 685.7 601 642.8 601C600 601 557 601 514.2 601C471.3 601 428.7 601 385.8 601C343 601 300 601 257.2 601C214.3 601 171.7 601 128.8 601C86 601 43 601 21.5 601L0 601Z" fill="#fa7268"></path><path d="M0 446L21.5 442.8C43 439.7 86 433.3 128.8 426.8C171.7 420.3 214.3 413.7 257.2 411.2C300 408.7 343 410.3 385.8 415.3C428.7 420.3 471.3 428.7 514.2 436.3C557 444 600 451 642.8 451.3C685.7 451.7 728.3 445.3 771.2 438.5C814 431.7 857 424.3 878.5 420.7L900 417L900 601L878.5 601C857 601 814 601 771.2 601C728.3 601 685.7 601 642.8 601C600 601 557 601 514.2 601C471.3 601 428.7 601 385.8 601C343 601 300 601 257.2 601C214.3 601 171.7 601 128.8 601C86 601 43 601 21.5 601L0 601Z" fill="#ef5f67"></path><path d="M0 500L21.5 490.7C43 481.3 86 462.7 128.8 457.2C171.7 451.7 214.3 459.3 257.2 468.5C300 477.7 343 488.3 385.8 493.8C428.7 499.3 471.3 499.7 514.2 493.8C557 488 600 476 642.8 468.8C685.7 461.7 728.3 459.3 771.2 461.7C814 464 857 471 878.5 474.5L900 478L900 601L878.5 601C857 601 814 601 771.2 601C728.3 601 685.7 601 642.8 601C600 601 557 601 514.2 601C471.3 601 428.7 601 385.8 601C343 601 300 601 257.2 601C214.3 601 171.7 601 128.8 601C86 601 43 601 21.5 601L0 601Z" fill="#e34c67"></path><path d="M0 516L21.5 516.7C43 517.3 86 518.7 128.8 517.2C171.7 515.7 214.3 511.3 257.2 511.3C300 511.3 343 515.7 385.8 515C428.7 514.3 471.3 508.7 514.2 510C557 511.3 600 519.7 642.8 522.3C685.7 525 728.3 522 771.2 521.8C814 521.7 857 524.3 878.5 525.7L900 527L900 601L878.5 601C857 601 814 601 771.2 601C728.3 601 685.7 601 642.8 601C600 601 557 601 514.2 601C471.3 601 428.7 601 385.8 601C343 601 300 601 257.2 601C214.3 601 171.7 601 128.8 601C86 601 43 601 21.5 601L0 601Z" fill="#d53867"></path><path d="M0 572L21.5 568.2C43 564.3 86 556.7 128.8 549.5C171.7 542.3 214.3 535.7 257.2 534.5C300 533.3 343 537.7 385.8 544.7C428.7 551.7 471.3 561.3 514.2 560C557 558.7 600 546.3 642.8 546.5C685.7 546.7 728.3 559.3 771.2 559.7C814 560 857 548 878.5 542L900 536L900 601L878.5 601C857 601 814 601 771.2 601C728.3 601 685.7 601 642.8 601C600 601 557 601 514.2 601C471.3 601 428.7 601 385.8 601C343 601 300 601 257.2 601C214.3 601 171.7 601 128.8 601C86 601 43 601 21.5 601L0 601Z" fill="#c62368"></path></svg>